<svg xmlns="http://www.w3.org/2000/svg" version="1.1" xmlns:xlink="http://www.w3.org/1999/xlink" xmlns:svgjs="http://svgjs.dev/svgjs" width="1500" height="1500" viewBox="0 0 1500 1500"><rect width="1500" height="1500" fill="#ffffff"></rect><g transform="matrix(0.6666666666666666,0,0,0.6666666666666666,250,246.54829266716058)"><svg viewBox="0 0 280 281" data-background-color="#ffffff" preserveAspectRatio="xMidYMid meet" height="1505" width="1500" xmlns="http://www.w3.org/2000/svg" xmlns:xlink="http://www.w3.org/1999/xlink"><g id="tight-bounds" transform="matrix(1,0,0,1,0,0.49992999388160797)"><svg viewBox="0 0 280 280" height="280" width="280"><g><svg viewBox="0 0 280 280" height="280" width="280"><g><svg viewBox="0 0 280 280" height="280" width="280"><g id="textblocktransform"><svg viewBox="0 0 280 280" height="280" width="280" id="textblock"><g><svg viewBox="0 0 280 280" height="280" width="280"><g transform="matrix(1,0,0,1,74.00336708925556,93.28886337917922)"><svg viewBox="0 0 131.99326582148888 93.42227324164155" height="93.42227324164155" width="131.99326582148888"><g id="icon-0"><svg xmlns="http://www.w3.org/2000/svg" xmlns:xlink="http://www.w3.org/1999/xlink" version="1.1" x="0" y="0" viewBox="2.999 16.7325 94.003 66.5335" enable-background="new 0 0 100 100" xml:space="preserve" height="93.42227324164155" width="131.99326582148888" class="icon-jxe-0" data-fill-palette-color="accent" id="jxe-0"><path d="M97.002 83.222L82.023 68.243C73.567 76.632 51.119 67.107 37.065 53.055L37.529 52.591C49.298 64.36 71.218 71.552 78.314 64.533L34.751 20.97C29.102 15.32 19.942 15.32 14.292 20.97A14.6 14.6 0 0 0 12.578 23.034L4.11 20.813 8.017 27.132 2.999 31.63 10.112 31.842A27.66 27.66 0 0 0 13.98 44.295 25.3 25.3 0 0 0 10.055 57.865C10.055 71.894 21.428 83.266 35.456 83.266zM23.688 30.507A3.355 3.355 0 1 1 23.688 23.797 3.355 3.355 0 0 1 23.687 30.508" fill="#e9de2c" data-fill-palette-color="accent"></path></svg></g></svg></g><g id="text-0"><path d="M34.622 96.381v0c-0.783 2.02-1.824 3.723-3.122 5.109-1.303 1.377-2.787 2.42-4.452 3.129-1.671 0.707-3.458 1.062-5.363 1.066-1.896 0-3.82-0.378-5.772-1.134v0l-0.781-0.303c-1.667-0.646-3.166-1.561-4.495-2.746-1.33-1.185-2.404-2.571-3.223-4.156-0.825-1.588-1.291-3.319-1.399-5.193-0.108-1.874 0.225-3.811 1.001-5.813v0c0.838-2.163 1.995-3.928 3.473-5.294 1.471-1.369 3.136-2.281 4.994-2.737 1.859-0.456 3.781-0.396 5.767 0.181v0l-1.382 3.57c-1.513-0.401-2.902-0.393-4.168 0.021-1.265 0.415-2.366 1.104-3.302 2.067-0.936 0.963-1.661 2.108-2.175 3.434v0c-0.526 1.357-0.765 2.701-0.717 4.031 0.048 1.33 0.365 2.582 0.951 3.757 0.582 1.166 1.417 2.22 2.506 3.163 1.083 0.94 2.408 1.713 3.976 2.32v0c1.785 0.691 3.441 1.052 4.97 1.081 1.534 0.031 2.918-0.22 4.152-0.755 1.231-0.528 2.305-1.306 3.223-2.333 0.918-1.027 1.653-2.253 2.206-3.678v0c0.783-2.02 1.058-3.956 0.827-5.806-0.223-1.854-0.837-3.424-1.842-4.712v0l3.742 2.925-7.735-2.996 1.271-3.282 6.201 2.402c1.073 1.756 1.683 3.713 1.831 5.873 0.147 2.16-0.24 4.429-1.163 6.809zM29.326 79.362l-5.401 13.945-2.928-1.135 5.401-13.944z" fill="#067627" data-fill-palette-color="primary"></path><path d="M47.247 71.26l-2.139 2.98-16.587-11.905 1.692-2.357 6.835 4.906-0.087 0.122c-2.424-1.74-3.817-3.55-4.178-5.429-0.365-1.874 0.218-3.877 1.749-6.009v0l0.401-0.559 2.673 1.918-0.756 1.053c-1.19 1.658-1.664 3.248-1.424 4.77 0.241 1.523 1.19 2.879 2.848 4.069v0z" fill="#067627" data-fill-palette-color="primary"></path><path d="M66.054 52.503v0c-1.34 1.184-2.7 1.978-4.082 2.381-1.376 0.4-2.705 0.492-3.986 0.276-1.277-0.211-2.476-0.655-3.597-1.331-1.126-0.672-2.12-1.497-2.983-2.473v0l-0.456-0.516c-0.876-0.991-1.578-2.087-2.106-3.287-0.533-1.196-0.826-2.441-0.877-3.734-0.056-1.298 0.191-2.59 0.741-3.874 0.55-1.284 1.466-2.492 2.746-3.623v0c1.659-1.465 3.345-2.317 5.059-2.554 1.71-0.243 3.326-0.03 4.848 0.639 1.522 0.659 2.849 1.629 3.98 2.909v0l1.089 1.233-13.583 11.999-1.822-2.062 11.574-10.224 0.356 1.668c-0.959-1.086-1.961-1.873-3.004-2.362-1.048-0.493-2.109-0.656-3.184-0.486-1.075 0.169-2.137 0.718-3.188 1.646v0c-1.091 0.964-1.775 2.011-2.052 3.143-0.282 1.127-0.219 2.277 0.189 3.451 0.408 1.174 1.109 2.324 2.103 3.45v0c0.964 1.091 2.005 1.913 3.124 2.467 1.124 0.559 2.281 0.76 3.473 0.604 1.191-0.148 2.362-0.73 3.512-1.746v0c1.2-1.06 1.942-2.194 2.224-3.401 0.281-1.197 0.187-2.218-0.284-3.062v0l2.578-2.277c0.719 1.236 1.101 2.517 1.146 3.843 0.046 1.317-0.234 2.596-0.838 3.84-0.6 1.248-1.5 2.403-2.7 3.463z" fill="#067627" data-fill-palette-color="primary"></path><path d="M90.38 36.705v0c-1.594 0.809-3.111 1.235-4.549 1.28-1.432 0.041-2.742-0.204-3.928-0.736-1.183-0.525-2.232-1.256-3.147-2.193-0.921-0.934-1.676-1.982-2.266-3.143v0l-0.311-0.614c-0.598-1.18-1.002-2.417-1.212-3.711-0.216-1.292-0.186-2.57 0.089-3.835 0.272-1.271 0.836-2.459 1.692-3.563 0.856-1.105 2.045-2.043 3.568-2.816v0c1.974-1.001 3.82-1.401 5.539-1.2 1.716 0.195 3.227 0.808 4.532 1.837 1.308 1.021 2.348 2.293 3.121 3.816v0l0.744 1.467-16.163 8.199-1.245-2.453 13.772-6.987-0.075 1.704c-0.655-1.292-1.427-2.306-2.314-3.041-0.89-0.741-1.876-1.165-2.959-1.271-1.083-0.107-2.249 0.157-3.5 0.792v0c-1.298 0.658-2.223 1.501-2.776 2.526-0.556 1.02-0.784 2.149-0.685 3.388 0.099 1.239 0.489 2.528 1.169 3.868v0c0.658 1.298 1.46 2.356 2.403 3.173 0.947 0.824 2.017 1.309 3.21 1.458 1.19 0.157 2.469-0.112 3.838-0.808v0c1.428-0.725 2.431-1.636 3.007-2.732 0.573-1.088 0.738-2.1 0.495-3.035v0l3.068-1.556c0.385 1.377 0.433 2.713 0.143 4.007-0.287 1.286-0.879 2.454-1.776 3.506-0.894 1.057-2.056 1.948-3.484 2.673z" fill="#067627" data-fill-palette-color="primary"></path><path d="M112.913 27.861l-3.578 0.811-4.512-19.912 2.829-0.641 1.935 8.536-0.447 0.102c-0.445-1.964-0.552-3.684-0.321-5.161 0.225-1.475 0.804-2.69 1.739-3.645 0.934-0.961 2.234-1.631 3.9-2.008v0l0.146-0.033c2.515-0.57 4.553-0.207 6.114 1.088 1.561 1.295 2.677 3.421 3.346 6.377v0l2.578 11.375-3.588 0.813-2.747-12.124c-0.348-1.536-1.062-2.673-2.143-3.409-1.08-0.737-2.378-0.933-3.895-0.589v0c-1.569 0.355-2.726 1.129-3.471 2.319-0.753 1.186-0.947 2.586-0.582 4.201v0z" fill="#067627" data-fill-palette-color="primary"></path><path d="M174.541 38.329l-3.988-0.897c-1.342-0.302-2.47-0.757-3.382-1.364-0.905-0.612-1.527-1.451-1.866-2.514-0.332-1.069-0.313-2.424 0.056-4.065v0l0.74-3.287 3.355 0.755-0.864 3.841c-0.185 0.823-0.088 1.527 0.292 2.11 0.38 0.583 0.965 0.963 1.756 1.141v0l4.63 1.042zM167.134 29.101v0c-2.438-0.549-4.441-1.456-6.009-2.721-1.575-1.267-2.773-2.739-3.594-4.416-0.828-1.678-1.339-3.387-1.534-5.128-0.194-1.74-0.124-3.356 0.212-4.847v0l0.186-0.826c0.363-1.615 1.015-3.178 1.954-4.69 0.94-1.512 2.15-2.817 3.63-3.915 1.472-1.093 3.175-1.85 5.11-2.273 1.942-0.428 4.107-0.374 6.493 0.163v0c2.386 0.537 4.362 1.414 5.927 2.632 1.573 1.212 2.791 2.627 3.653 4.245 0.861 1.624 1.395 3.322 1.603 5.092 0.201 1.769 0.121 3.461-0.242 5.075v0l-0.186 0.827c-0.336 1.491-0.964 2.982-1.885 4.47-0.927 1.488-2.121 2.813-3.582 3.976-1.467 1.162-3.18 1.979-5.14 2.451-1.959 0.472-4.158 0.434-6.596-0.115zM167.889 25.746v0c1.589 0.357 3.092 0.382 4.51 0.074 1.412-0.309 2.681-0.878 3.808-1.708 1.135-0.835 2.082-1.851 2.842-3.049 0.767-1.197 1.313-2.518 1.638-3.964v0c0.341-1.517 0.424-2.987 0.247-4.41-0.171-1.421-0.593-2.739-1.267-3.954-0.669-1.206-1.577-2.239-2.726-3.096-1.154-0.866-2.525-1.478-4.114-1.835v0c-1.595-0.359-3.096-0.394-4.504-0.104-1.412 0.282-2.679 0.824-3.799 1.628-1.122 0.81-2.068 1.82-2.838 3.03-0.77 1.21-1.325 2.573-1.667 4.09v0c-0.325 1.446-0.398 2.874-0.218 4.284 0.18 1.41 0.601 2.734 1.262 3.973 0.663 1.232 1.569 2.291 2.719 3.176 1.143 0.884 2.512 1.505 4.107 1.865z" fill="#e9de2c" data-fill-palette-color="accent"></path><path d="M197.414 40.653l-0.139-0.077c-2.115-1.175-3.359-2.767-3.733-4.777-0.365-2.012 0.178-4.322 1.627-6.931v0l5.757-10.362 3.207 1.782-6.11 10.998c-0.781 1.406-1.014 2.714-0.698 3.923 0.322 1.213 1.128 2.178 2.418 2.895v0c1.336 0.742 2.667 0.919 3.993 0.53 1.326-0.389 2.402-1.326 3.229-2.813v0l5.926-10.667 3.207 1.782-9.935 17.882-2.536-1.409 4.251-7.651 0.401 0.222c-0.978 1.76-2.04 3.117-3.185 4.07-1.139 0.956-2.35 1.492-3.631 1.609-1.276 0.12-2.625-0.215-4.049-1.006z" fill="#e9de2c" data-fill-palette-color="accent"></path><path d="M221.73 59.754v0c-1.276-1.252-2.165-2.552-2.667-3.901-0.497-1.344-0.684-2.663-0.56-3.957 0.119-1.289 0.476-2.517 1.072-3.683 0.59-1.171 1.342-2.222 2.253-3.152v0l0.482-0.491c0.926-0.944 1.969-1.723 3.129-2.335 1.155-0.617 2.376-0.998 3.662-1.142 1.291-0.149 2.597 0.006 3.917 0.463 1.32 0.457 2.59 1.284 3.809 2.48v0c1.58 1.55 2.55 3.171 2.909 4.864 0.364 1.688 0.267 3.315-0.291 4.881-0.549 1.566-1.421 2.958-2.618 4.178v0l-1.152 1.174-12.938-12.692 1.927-1.964 11.024 10.814-1.638 0.474c1.015-1.034 1.728-2.089 2.141-3.165 0.417-1.08 0.503-2.15 0.258-3.21-0.245-1.06-0.868-2.081-1.87-3.063v0c-1.039-1.019-2.133-1.627-3.281-1.822-1.144-0.2-2.287-0.056-3.429 0.435-1.142 0.49-2.239 1.272-3.291 2.344v0c-1.019 1.039-1.765 2.137-2.238 3.292-0.478 1.161-0.596 2.33-0.354 3.507 0.232 1.177 0.896 2.304 1.992 3.379v0c1.143 1.122 2.327 1.78 3.551 1.975 1.214 0.195 2.226 0.028 3.034-0.501v0l2.455 2.408c-1.181 0.806-2.432 1.278-3.751 1.418-1.31 0.14-2.606-0.048-3.89-0.562-1.288-0.509-2.504-1.325-3.647-2.446z" fill="#e9de2c" data-fill-palette-color="accent"></path><path d="M238.421 81.182v0c-1.404-2.281-2.002-4.344-1.795-6.188 0.209-1.854 1.148-3.321 2.816-4.402v0l1.802 2.929c-0.649 0.454-1.072 1.187-1.269 2.197-0.206 1.009 0.164 2.283 1.112 3.823v0c0.857 1.392 1.789 2.286 2.797 2.68 1.008 0.394 1.913 0.344 2.716-0.15v0c0.713-0.439 1.105-1.051 1.177-1.836 0.067-0.791-0.208-1.835-0.827-3.132v0l-0.97-2.013c-0.838-1.755-1.17-3.404-0.997-4.947 0.174-1.543 0.997-2.768 2.469-3.674v0c1.109-0.683 2.233-0.988 3.37-0.915 1.141 0.078 2.232 0.488 3.273 1.228 1.038 0.735 1.957 1.753 2.758 3.056v0c1.202 1.953 1.741 3.806 1.619 5.559-0.117 1.75-1.019 3.175-2.707 4.276v0l-1.808-2.938c0.68-0.442 1.075-1.126 1.184-2.051 0.107-0.917-0.214-1.983-0.962-3.2v0c-0.749-1.217-1.566-1.986-2.451-2.308-0.885-0.322-1.709-0.247-2.473 0.222v0c-0.651 0.401-1.036 0.942-1.155 1.624-0.115 0.688 0.087 1.574 0.606 2.659v0l0.97 2.013c0.957 1.986 1.363 3.8 1.219 5.443-0.141 1.648-0.97 2.938-2.487 3.871v0c-1.087 0.669-2.241 0.95-3.461 0.843-1.212-0.105-2.387-0.556-3.526-1.354-1.133-0.801-2.133-1.906-3-3.315z" fill="#e9de2c" data-fill-palette-color="accent"></path><path d="M251.166 109.404l-1.021-2.959c-0.499-1.445-0.725-2.763-0.679-3.953 0.046-1.19 0.475-2.241 1.285-3.153 0.804-0.91 2.06-1.66 3.769-2.25v0l18.584-6.413 1.144 3.317-19.017 6.563c-1.037 0.358-1.739 0.92-2.107 1.687-0.37 0.761-0.377 1.659-0.019 2.695v0l1.171 3.393zM268.082 103.567l-4.589-13.297 2.601-0.898 4.589 13.297z" fill="#e9de2c" data-fill-palette-color="accent"></path><path d="M14.246 193.065v0c-0.811-2.074-1.205-4.085-1.182-6.036 0.029-1.952 0.43-3.775 1.202-5.468 0.772-1.693 1.877-3.203 3.314-4.528 1.44-1.319 3.159-2.37 5.158-3.151v0l0.799-0.313c1.708-0.668 3.477-1.017 5.306-1.046 1.838-0.026 3.619 0.277 5.344 0.908 1.718 0.634 3.271 1.622 4.658 2.963 1.382 1.344 2.473 3.04 3.274 5.09v0c0.869 2.222 1.221 4.364 1.057 6.426-0.164 2.062-0.791 3.909-1.88 5.541-1.093 1.64-2.594 2.93-4.503 3.869v0l-1.431-3.658c1.42-0.748 2.468-1.718 3.145-2.91 0.673-1.198 1.027-2.485 1.059-3.861 0.039-1.378-0.209-2.751-0.743-4.119v0c-0.542-1.387-1.292-2.567-2.251-3.541-0.953-0.976-2.058-1.704-3.315-2.183-1.258-0.479-2.624-0.698-4.1-0.656-1.475 0.041-3.018 0.377-4.626 1.006v0c-1.826 0.714-3.331 1.591-4.516 2.633-1.187 1.035-2.062 2.183-2.625 3.445-0.557 1.259-0.826 2.596-0.809 4.009 0.017 1.413 0.313 2.853 0.886 4.32v0c0.811 2.074 1.944 3.732 3.401 4.975 1.456 1.243 3.014 2.005 4.672 2.285v0l-4.871 0.383 7.939-3.103 1.318 3.371-6.37 2.49c-2.027-0.585-3.848-1.646-5.462-3.185-1.612-1.532-2.895-3.517-3.848-5.956zM30.078 202.268l-5.593-14.308 2.999-1.173 5.593 14.309z" fill="#067627" data-fill-palette-color="primary"></path><path d="M30.691 222.177l-2.206-3.056 17.014-12.285 1.745 2.417-7.008 5.06-0.093-0.129c2.484-1.794 4.697-2.56 6.64-2.299 1.948 0.257 3.712 1.48 5.292 3.668v0l0.414 0.573-2.74 1.979-0.782-1.083c-1.226-1.697-2.619-2.679-4.18-2.946-1.563-0.257-3.193 0.227-4.89 1.453v0z" fill="#067627" data-fill-palette-color="primary"></path><path d="M51.668 245.261v0c-1.377-1.212-2.358-2.496-2.944-3.853-0.59-1.352-0.857-2.693-0.8-4.025 0.056-1.332 0.356-2.613 0.9-3.843 0.543-1.231 1.256-2.347 2.139-3.35v0l0.467-0.531c0.9-1.023 1.926-1.882 3.078-2.577 1.152-0.695 2.385-1.155 3.699-1.38 1.309-0.22 2.654-0.134 4.035 0.259 1.382 0.402 2.731 1.182 4.049 2.342v0c1.706 1.502 2.793 3.109 3.259 4.821 0.463 1.718 0.452 3.395-0.032 5.032-0.475 1.636-1.292 3.113-2.452 4.429v0l-1.12 1.272-13.986-12.311 1.871-2.125 11.921 10.493-1.666 0.58c0.988-1.122 1.665-2.249 2.031-3.379 0.362-1.125 0.388-2.226 0.079-3.304-0.313-1.073-1.009-2.083-2.086-3.031v0c-1.122-0.988-2.277-1.553-3.463-1.694-1.191-0.136-2.357 0.077-3.498 0.639-1.136 0.567-2.216 1.431-3.239 2.594v0c-0.984 1.117-1.691 2.283-2.123 3.498-0.422 1.214-0.477 2.418-0.165 3.613 0.307 1.2 1.049 2.318 2.227 3.354v0c1.237 1.089 2.486 1.702 3.747 1.838 1.266 0.131 2.296-0.099 3.092-0.691v0l2.657 2.338c-1.167 0.894-2.422 1.449-3.765 1.667-1.338 0.212-2.681 0.093-4.028-0.358-1.352-0.455-2.647-1.228-3.884-2.317z" fill="#067627" data-fill-palette-color="primary"></path><path d="M80.635 264.123v0c-1.637-0.827-2.909-1.824-3.817-2.99-0.91-1.16-1.506-2.392-1.785-3.694-0.28-1.303-0.311-2.618-0.095-3.947 0.217-1.328 0.626-2.588 1.229-3.78v0l0.319-0.631c0.615-1.216 1.392-2.305 2.333-3.267 0.94-0.962 2.018-1.717 3.233-2.265 1.212-0.542 2.536-0.796 3.971-0.763 1.438 0.042 2.941 0.458 4.507 1.25v0c2.029 1.025 3.484 2.308 4.366 3.849 0.879 1.546 1.29 3.173 1.232 4.878-0.049 1.703-0.469 3.337-1.261 4.903v0l-0.764 1.513-16.63-8.404 1.277-2.527 14.174 7.163-1.466 0.979c0.674-1.335 1.047-2.595 1.117-3.781 0.067-1.18-0.184-2.252-0.753-3.217-0.573-0.96-1.499-1.763-2.78-2.411v0c-1.335-0.674-2.594-0.931-3.778-0.77-1.187 0.167-2.262 0.667-3.225 1.498-0.958 0.834-1.786 1.942-2.485 3.324v0c-0.671 1.329-1.063 2.635-1.176 3.919-0.104 1.281 0.145 2.46 0.748 3.538 0.599 1.084 1.598 1.98 2.998 2.688v0c1.471 0.743 2.834 1.023 4.089 0.838 1.258-0.191 2.198-0.673 2.819-1.446v0l3.159 1.597c-0.906 1.158-1.981 2.011-3.226 2.558-1.242 0.542-2.571 0.763-3.988 0.665-1.423-0.101-2.87-0.524-4.342-1.267z" fill="#067627" data-fill-palette-color="primary"></path><path d="M108.444 273.359l-3.676-0.829 4.616-20.471 2.908 0.656-1.98 8.781-0.458-0.103c0.455-2.016 1.115-3.659 1.981-4.929 0.859-1.271 1.934-2.143 3.226-2.614 1.287-0.48 2.786-0.527 4.497-0.141v0l0.156 0.035c2.58 0.582 4.308 1.82 5.182 3.714 0.876 1.887 0.971 4.351 0.285 7.391v0l-2.636 11.69-3.676-0.829 2.809-12.458c0.357-1.582 0.196-2.954-0.482-4.115-0.678-1.161-1.796-1.917-3.352-2.268v0c-1.614-0.364-3.03-0.159-4.247 0.616-1.224 0.773-2.023 1.99-2.397 3.65v0z" fill="#067627" data-fill-palette-color="primary"></path><path d="M182.816 278.786l-4.096 0.917c-1.381 0.309-2.63 0.377-3.744 0.204-1.113-0.166-2.057-0.67-2.831-1.512-0.782-0.847-1.362-2.113-1.739-3.799v0l-0.756-3.376 3.454-0.773 0.884 3.95c0.189 0.843 0.587 1.452 1.195 1.827 0.602 0.376 1.315 0.472 2.138 0.287v0l4.748-1.062zM171.878 273.459v0c-2.504 0.56-4.763 0.596-6.78 0.108-2.01-0.49-3.768-1.333-5.275-2.528-1.499-1.19-2.723-2.551-3.672-4.082-0.944-1.539-1.587-3.074-1.929-4.604v0l-0.19-0.847c-0.372-1.66-0.454-3.399-0.248-5.216 0.213-1.818 0.763-3.559 1.651-5.222 0.888-1.663 2.139-3.118 3.753-4.364 1.614-1.247 3.647-2.144 6.099-2.693v0c2.458-0.55 4.683-0.605 6.675-0.166 1.992 0.44 3.744 1.222 5.256 2.349 1.512 1.126 2.752 2.466 3.719 4.02 0.961 1.556 1.627 3.164 1.999 4.824v0l0.189 0.846c0.343 1.531 0.415 3.193 0.218 4.988-0.206 1.79-0.733 3.542-1.582 5.258-0.854 1.723-2.085 3.235-3.695 4.535-1.616 1.301-3.679 2.233-6.188 2.795zM171.105 270.006v0c1.641-0.367 3.051-1.003 4.232-1.907 1.179-0.911 2.11-1.998 2.794-3.262 0.676-1.268 1.108-2.628 1.294-4.079 0.186-1.451 0.113-2.917-0.218-4.395v0c-0.35-1.563-0.92-2.968-1.709-4.215-0.79-1.247-1.757-2.283-2.903-3.11-1.153-0.832-2.453-1.392-3.9-1.681-1.449-0.296-2.993-0.26-4.635 0.108v0c-1.634 0.366-3.044 0.991-4.228 1.875-1.186 0.878-2.123 1.939-2.812 3.184-0.684 1.236-1.117 2.586-1.3 4.05-0.183 1.464-0.1 2.978 0.25 4.541v0c0.331 1.479 0.89 2.835 1.676 4.069 0.787 1.234 1.757 2.28 2.91 3.139 1.158 0.851 2.464 1.437 3.918 1.759 1.453 0.315 2.997 0.29 4.631-0.076z" fill="#e9de2c" data-fill-palette-color="accent"></path><path d="M208.044 259.541l-0.13 0.073c-2.179 1.209-4.246 1.429-6.202 0.659-1.958-0.775-3.681-2.503-5.167-5.181v0l-5.907-10.643 3.303-1.834 6.27 11.297c0.8 1.441 1.815 2.352 3.045 2.734 1.23 0.381 2.508 0.204 3.833-0.531v0c1.377-0.764 2.255-1.826 2.634-3.184 0.381-1.367 0.146-2.818-0.705-4.352v0l-6.081-10.957 3.304-1.833 10.198 18.375-2.615 1.451-4.369-7.871 0.41-0.228c1.006 1.813 1.618 3.477 1.835 4.991 0.208 1.511 0.018 2.86-0.571 4.045-0.586 1.177-1.614 2.173-3.085 2.989z" fill="#e9de2c" data-fill-palette-color="accent"></path><path d="M237.196 237.022v0c-1.31 1.284-2.663 2.168-4.059 2.652-1.391 0.489-2.749 0.656-4.073 0.503-1.324-0.154-2.579-0.547-3.766-1.18-1.187-0.632-2.249-1.425-3.184-2.38v0l-0.496-0.505c-0.954-0.973-1.735-2.059-2.343-3.259-0.608-1.2-0.976-2.463-1.104-3.79-0.123-1.322 0.062-2.657 0.555-4.006 0.502-1.349 1.38-2.637 2.633-3.865v0c1.623-1.591 3.306-2.557 5.048-2.896 1.747-0.335 3.419-0.201 5.015 0.402 1.597 0.594 3.009 1.518 4.238 2.771v0l1.186 1.21-13.306 13.043-1.982-2.022 11.341-11.116 0.455 1.703c-1.047-1.068-2.12-1.826-3.22-2.274-1.095-0.443-2.192-0.551-3.289-0.322-1.093 0.233-2.152 0.853-3.177 1.858v0c-1.068 1.047-1.716 2.157-1.943 3.329-0.223 1.177-0.096 2.356 0.38 3.536 0.482 1.175 1.265 2.316 2.349 3.421v0c1.042 1.063 2.153 1.854 3.332 2.374 1.179 0.51 2.376 0.654 3.591 0.431 1.219-0.218 2.389-0.876 3.509-1.975v0c1.177-1.154 1.88-2.355 2.109-3.602 0.224-1.253 0.07-2.297-0.462-3.135v0l2.527-2.477c0.805 1.23 1.267 2.522 1.385 3.877 0.113 1.35-0.104 2.68-0.653 3.991-0.554 1.315-1.419 2.55-2.596 3.703z" fill="#e9de2c" data-fill-palette-color="accent"></path><path d="M257.051 211.396v0c-1.444 2.342-3.061 3.844-4.851 4.505-1.799 0.663-3.581 0.482-5.345-0.544v0l1.857-3.013c0.718 0.38 1.588 0.433 2.609 0.157 1.016-0.279 2.012-1.211 2.989-2.795v0c0.883-1.431 1.272-2.702 1.168-3.813-0.102-1.101-0.566-1.907-1.391-2.415v0c-0.735-0.454-1.481-0.53-2.236-0.231-0.758 0.305-1.586 1.04-2.484 2.204v0l-1.402 1.818c-1.224 1.58-2.583 2.651-4.077 3.213-1.497 0.553-3.003 0.362-4.519-0.573v0c-1.137-0.701-1.933-1.594-2.389-2.68-0.459-1.079-0.589-2.268-0.389-3.566 0.196-1.293 0.705-2.606 1.529-3.941v0c1.238-2.008 2.69-3.362 4.354-4.061 1.661-0.693 3.386-0.52 5.173 0.519v0l-1.852 3.004c-0.727-0.417-1.539-0.461-2.437-0.132-0.889 0.327-1.718 1.115-2.489 2.365v0c-0.767 1.245-1.097 2.349-0.989 3.314 0.117 0.962 0.566 1.684 1.346 2.165v0c0.668 0.412 1.343 0.512 2.028 0.302 0.684-0.211 1.406-0.804 2.164-1.781v0l1.388-1.814c1.386-1.792 2.864-3.005 4.434-3.638 1.575-0.629 3.143-0.463 4.704 0.5v0c1.114 0.687 1.906 1.613 2.376 2.777 0.469 1.164 0.596 2.452 0.38 3.865-0.206 1.411-0.756 2.841-1.649 4.289z" fill="#e9de2c" data-fill-palette-color="accent"></path><path d="M271.156 178.599l-1.057 3.042c-0.515 1.482-1.17 2.689-1.966 3.623-0.794 0.927-1.807 1.504-3.039 1.731-1.224 0.222-2.715 0.028-4.473-0.583v0l-19.079-6.628 1.184-3.409 19.522 6.782c1.061 0.369 1.985 0.362 2.772-0.019 0.787-0.381 1.364-1.102 1.733-2.163v0l1.21-3.485zM253.781 172.564l-4.744 13.654-2.674-0.929 4.744-13.655z" fill="#e9de2c" data-fill-palette-color="accent"></path><path d="M3.428 140.512c0-6.051 4.905-10.956 10.957-10.956 6.051 0 10.956 4.905 10.956 10.956 0 6.051-4.905 10.956-10.956 10.956-6.051 0-10.956-4.905-10.957-10.956z" fill="#067627" data-fill-palette-color="primary"></path><path d="M254.659 140.512c0-6.051 4.905-10.956 10.956-10.956 6.051 0 10.956 4.905 10.957 10.956 0 6.051-4.905 10.956-10.957 10.956-6.051 0-10.956-4.905-10.956-10.956z" fill="#067627" data-fill-palette-color="primary"></path></g><g id="text-1"></g></svg></g></svg></g></svg></g></svg></g><defs></defs></svg><rect width="280" height="280" fill="none" stroke="none" visibility="hidden"></rect></g></svg></g></svg>